<?xml version="1.0" encoding="UTF-8" standalone="no"?>
<!-- Created with Inkscape (http://www.inkscape.org/) -->

<svg
   xmlns:dc="http://purl.org/dc/elements/1.1/"
   xmlns:cc="http://creativecommons.org/ns#"
   xmlns:rdf="http://www.w3.org/1999/02/22-rdf-syntax-ns#"
   xmlns:svg="http://www.w3.org/2000/svg"
   xmlns="http://www.w3.org/2000/svg"
   xmlns:xlink="http://www.w3.org/1999/xlink"
   xmlns:sodipodi="http://sodipodi.sourceforge.net/DTD/sodipodi-0.dtd"
   xmlns:inkscape="http://www.inkscape.org/namespaces/inkscape"
   width="744.09448819"
   height="1052.3622047"
   id="svg2989"
   version="1.1"
   inkscape:version="0.48.2 r9819"
   sodipodi:docname="Новый документ 1">
  <defs
     id="defs2991">
    <linearGradient
       inkscape:collect="always"
       id="linearGradient3850">
      <stop
         style="stop-color:#000000;stop-opacity:1;"
         offset="0"
         id="stop3852" />
      <stop
         style="stop-color:#000000;stop-opacity:0;"
         offset="1"
         id="stop3854" />
    </linearGradient>
    <linearGradient
       inkscape:collect="always"
       xlink:href="#linearGradient3850"
       id="linearGradient3856"
       x1="320.07143"
       y1="513.67261"
       x2="429.92857"
       y2="513.67261"
       gradientUnits="userSpaceOnUse" />
    <linearGradient
       inkscape:collect="always"
       xlink:href="#linearGradient3850"
       id="linearGradient3872"
       gradientUnits="userSpaceOnUse"
       x1="320.07143"
       y1="513.67261"
       x2="429.92857"
       y2="513.67261" />
    <linearGradient
       inkscape:collect="always"
       xlink:href="#linearGradient3850"
       id="linearGradient3874"
       gradientUnits="userSpaceOnUse"
       x1="320.07143"
       y1="513.67261"
       x2="429.92857"
       y2="513.67261" />
    <linearGradient
       inkscape:collect="always"
       xlink:href="#linearGradient3850"
       id="linearGradient3896"
       gradientUnits="userSpaceOnUse"
       x1="320.07143"
       y1="513.67261"
       x2="429.92857"
       y2="513.67261" />
    <linearGradient
       inkscape:collect="always"
       xlink:href="#linearGradient3850"
       id="linearGradient3898"
       gradientUnits="userSpaceOnUse"
       x1="320.07143"
       y1="513.67261"
       x2="429.92857"
       y2="513.67261" />
  </defs>
  <sodipodi:namedview
     id="base"
     pagecolor="#ffffff"
     bordercolor="#666666"
     borderopacity="1.0"
     inkscape:pageopacity="0.0"
     inkscape:pageshadow="2"
     inkscape:zoom="0.7"
     inkscape:cx="361.69808"
     inkscape:cy="260.14914"
     inkscape:document-units="px"
     inkscape:current-layer="layer1"
     showgrid="false"
     inkscape:window-width="1366"
     inkscape:window-height="714"
     inkscape:window-x="-4"
     inkscape:window-y="-4"
     inkscape:window-maximized="1">
    <inkscape:grid
       type="xygrid"
       id="grid2997" />
  </sodipodi:namedview>
  <metadata
     id="metadata2994">
    <rdf:RDF>
      <cc:Work
         rdf:about="">
        <dc:format>image/svg+xml</dc:format>
        <dc:type
           rdf:resource="http://purl.org/dc/dcmitype/StillImage" />
        <dc:title></dc:title>
      </cc:Work>
    </rdf:RDF>
  </metadata>
  <g
     inkscape:label="Layer 1"
     inkscape:groupmode="layer"
     id="layer1">
    <g
       id="g3997">
      <g
         style="fill:#000000;fill-opacity:1;stroke:#000000;stroke-opacity:1"
         id="g3883">
        <path
           transform="translate(-44.285714,-0.71428572)"
           d="m 521.42857,533.79077 c 0,45.36625 -45.25122,82.14286 -101.07142,82.14286 -55.82021,0 -101.07143,-36.77661 -101.07143,-82.14286 0,-45.36625 45.25122,-82.14286 101.07143,-82.14286 55.8202,0 101.07142,36.77661 101.07142,82.14286 z"
           sodipodi:ry="82.14286"
           sodipodi:rx="101.07143"
           sodipodi:cy="533.79077"
           sodipodi:cx="420.35715"
           id="path3805"
           style="stroke:#000000;stroke-opacity:1;fill:#000000;fill-opacity:1;stroke-width:2;stroke-miterlimit:4;stroke-dasharray:none;stroke-dashoffset:0"
           sodipodi:type="arc" />
        <path
           style="fill:#000000;stroke:#000000;stroke-width:1px;stroke-linecap:butt;stroke-linejoin:miter;stroke-opacity:1;fill-opacity:1"
           d="M 444.46712,471.52447 507.09658,409.90516 376.7869,286.66655 523.25902,407.88486 457.5991,484.65645 z"
           id="path3831"
           inkscape:connector-curvature="0" />
        <path
           inkscape:connector-curvature="0"
           id="path3833"
           d="M 307.72166,471.88162 245.0922,410.26231 375.40188,287.0237 228.92976,408.24201 294.58968,485.0136 z"
           style="fill:#000000;fill-opacity:1;stroke:#000000;stroke-width:1px;stroke-linecap:butt;stroke-linejoin:miter;stroke-opacity:1" />
        <path
           style="fill:#000000;fill-opacity:1;stroke:#000000;stroke-width:1px;stroke-linecap:butt;stroke-linejoin:miter;stroke-opacity:1"
           d="m 470,507.36218 100,-52.85714 162.85715,40 -162.14286,-24.28572 -97.14286,60.71429 z"
           id="path3835"
           inkscape:connector-curvature="0" />
        <path
           style="fill:#000000;stroke:#000000;stroke-width:1px;stroke-linecap:butt;stroke-linejoin:miter;stroke-opacity:1;fill-opacity:1"
           d="m 473.57143,557.36218 115,-17.14286 100,51.42858 L 616.42857,750.21933 675.71429,597.36218 587.14286,551.6479 460,580.21932 z"
           id="path3837"
           inkscape:connector-curvature="0" />
        <path
           inkscape:connector-curvature="0"
           id="path3839"
           d="m 280,507.36218 -100,-52.85714 -162.857149,40 162.142859,-24.28572 97.14286,60.71429 z"
           style="fill:#000000;fill-opacity:1;stroke:#000000;stroke-width:1px;stroke-linecap:butt;stroke-linejoin:miter;stroke-opacity:1" />
        <path
           inkscape:connector-curvature="0"
           id="path3841"
           d="M 280,557.36218 165,540.21932 65,591.6479 137.14286,750.21933 77.85714,597.36218 166.42857,551.6479 293.57143,580.21932 z"
           style="fill:#000000;fill-opacity:1;stroke:#000000;stroke-width:1px;stroke-linecap:butt;stroke-linejoin:miter;stroke-opacity:1" />
      </g>
      <g
         transform="translate(-299.21422,271.26377)"
         style="fill:#ff03f2;fill-opacity:1;stroke:#000000;stroke-opacity:1"
         id="g3823">
        <g
           transform="translate(300,-272.62085)"
           style="fill:#ff03f2;fill-opacity:1;stroke:url(#linearGradient3898);stroke-opacity:1"
           id="g3817">
          <g
             id="g3858"
             style="stroke:url(#linearGradient3896)">
            <path
               sodipodi:type="arc"
               style="fill:#ffffff;fill-opacity:1;stroke:#ffffff;stroke-width:2;stroke-miterlimit:4;stroke-opacity:1;stroke-dasharray:none;stroke-dashoffset:0"
               id="path3807"
               sodipodi:cx="362.14285"
               sodipodi:cy="521.29077"
               sodipodi:rx="25"
               sodipodi:ry="19.642857"
               d="m 387.14285,521.29077 c 0,10.84845 -11.19288,19.64286 -25,19.64286 -13.80712,0 -25,-8.79441 -25,-19.64286 0,-10.84845 11.19288,-19.64286 25,-19.64286 13.80712,0 25,8.79441 25,19.64286 z"
               transform="matrix(1.152417,0,0,1.0848944,-67.33958,-51.872831)" />
            <path
               transform="matrix(1.152417,0,0,1.0848944,-17.33958,-51.872831)"
               d="m 387.14285,521.29077 c 0,10.84845 -11.19288,19.64286 -25,19.64286 -13.80712,0 -25,-8.79441 -25,-19.64286 0,-10.84845 11.19288,-19.64286 25,-19.64286 13.80712,0 25,8.79441 25,19.64286 z"
               sodipodi:ry="19.642857"
               sodipodi:rx="25"
               sodipodi:cy="521.29077"
               sodipodi:cx="362.14285"
               id="path3809"
               style="fill:#ffffff;fill-opacity:1;stroke:#ffffff;stroke-width:2;stroke-miterlimit:4;stroke-opacity:1;stroke-dasharray:none;stroke-dashoffset:0"
               sodipodi:type="arc" />
            <path
               sodipodi:type="arc"
               style="fill:#000000;fill-opacity:1;stroke:#000000;stroke-width:2;stroke-miterlimit:4;stroke-opacity:1;stroke-dasharray:none;stroke-dashoffset:0"
               id="path3813"
               sodipodi:cx="351.78571"
               sodipodi:cy="511.11218"
               sodipodi:rx="11.428572"
               sodipodi:ry="4.4642859"
               d="m 363.21428,511.11218 c 0,2.46556 -5.11675,4.46429 -11.42857,4.46429 -6.31183,0 -11.42858,-1.99873 -11.42858,-4.46429 0,-2.46555 5.11675,-4.46428 11.42858,-4.46428 6.31182,0 11.42857,1.99873 11.42857,4.46428 z"
               transform="matrix(0.80624497,0,0,1.4239871,76.374544,-214.09789)" />
            <path
               transform="matrix(0.80624497,0,0,1.4239871,106.37454,-214.09789)"
               d="m 363.21428,511.11218 c 0,2.46556 -5.11675,4.46429 -11.42857,4.46429 -6.31183,0 -11.42858,-1.99873 -11.42858,-4.46429 0,-2.46555 5.11675,-4.46428 11.42858,-4.46428 6.31182,0 11.42857,1.99873 11.42857,4.46428 z"
               sodipodi:ry="4.4642859"
               sodipodi:rx="11.428572"
               sodipodi:cy="511.11218"
               sodipodi:cx="351.78571"
               id="path3815"
               style="fill:#000000;fill-opacity:1;stroke:#000000;stroke-width:2.00002599;stroke-miterlimit:4;stroke-opacity:1;stroke-dasharray:none;stroke-dashoffset:0"
               sodipodi:type="arc" />
          </g>
        </g>
      </g>
      <g
         id="g3986">
        <path
           style="fill:none;stroke:#000000;stroke-width:2;stroke-linecap:butt;stroke-linejoin:miter;stroke-miterlimit:4;stroke-opacity:1;stroke-dasharray:none"
           d="m 376.42856,12.272897 0,440.000003"
           id="path3001"
           inkscape:connector-curvature="0" />
        <g
           id="g3954"
           transform="translate(0.29400857,0.06313448)">
          <path
             sodipodi:nodetypes="ccc"
             inkscape:connector-curvature="0"
             id="path2999"
             d="M 731.36436,14.084762 C 615.40998,13.608571 504.67949,13.132381 378.27742,12.656191 L 671.36436,204.08476"
             style="fill:none;stroke:#000000;stroke-width:2;stroke-linecap:butt;stroke-linejoin:miter;stroke-miterlimit:4;stroke-opacity:1;stroke-dasharray:none" />
          <path
             sodipodi:nodetypes="ccc"
             inkscape:connector-curvature="0"
             id="path3948"
             d="m 481.42857,13.076469 c -37.32179,10.587718 -40.5053,26.527372 -27.5,49.285714 -37.56603,-13.811315 -66.00271,-6.303357 -77.85714,21.785714"
             style="fill:none;stroke:#000000;stroke-width:2;stroke-linecap:butt;stroke-linejoin:miter;stroke-miterlimit:4;stroke-opacity:1;stroke-dasharray:none" />
          <path
             sodipodi:nodetypes="ccc"
             inkscape:connector-curvature="0"
             id="path3952"
             d="m 587.14286,14.505039 c -37.18507,16.570911 -89.87496,18.549062 -65.71429,92.857141 -46.58347,-1.83743 -114.07522,-17.770715 -145,63.57143"
             style="fill:none;stroke:#000000;stroke-width:2;stroke-linecap:butt;stroke-linejoin:miter;stroke-miterlimit:4;stroke-opacity:1;stroke-dasharray:none" />
        </g>
        <g
           id="g3959"
           transform="matrix(-1,0,0,1,752.5,-5.2491578e-7)">
          <path
             style="fill:none;stroke:#000000;stroke-width:2;stroke-linecap:butt;stroke-linejoin:miter;stroke-miterlimit:4;stroke-opacity:1;stroke-dasharray:none"
             d="M 731.30123,14.147897 C 615.34685,13.671706 504.61636,13.195516 378.21429,12.719326 L 671.30123,204.14789"
             id="path3961"
             inkscape:connector-curvature="0"
             sodipodi:nodetypes="ccc" />
          <path
             style="fill:none;stroke:#000000;stroke-width:2;stroke-linecap:butt;stroke-linejoin:miter;stroke-miterlimit:4;stroke-opacity:1;stroke-dasharray:none"
             d="m 481.42857,13.076469 c -37.32179,10.587718 -40.5053,26.527372 -27.5,49.285714 -37.56603,-13.811315 -66.00271,-6.303357 -77.85714,21.785714"
             id="path3963"
             inkscape:connector-curvature="0"
             sodipodi:nodetypes="ccc" />
          <path
             style="fill:none;stroke:#000000;stroke-width:2;stroke-linecap:butt;stroke-linejoin:miter;stroke-miterlimit:4;stroke-opacity:1;stroke-dasharray:none"
             d="m 587.14286,14.505039 c -37.18507,16.570911 -89.87496,18.549062 -65.71429,92.857141 -46.58347,-1.83743 -114.07522,-17.770715 -145,63.57143"
             id="path3965"
             inkscape:connector-curvature="0"
             sodipodi:nodetypes="ccc" />
        </g>
      </g>
    </g>
  </g>
</svg>
